<svg xmlns="http://www.w3.org/2000/svg" width="30.94" height="30.514" viewBox="0 0 30.94 30.514">
  <path id="Path_2" data-name="Path 2" d="M5.97,0H0V12.139l3.5.655ZM0,14.55v5.545l2.59-2.568.463-2.411ZM0,30.514H.291L1.97,21.583,0,23.555Zm2.873,0H8.955l-4.575-7.9Zm15.134-1.66-1.59,1.66H22.3l.746-7.078-5.067,5.411Zm-4.09-11.238L5.634,16.068l-.493,2.538c-.1.543,5.418,9.965,6.552,11.908h1.075l3.888-3.721h0l6.582-6.333.2-1.057-9.515-1.786Zm11.455,12.9h5.56V30.03l-4.672-5.768Zm1.127-9.3,4.4,5.21v-6.1l-4.172-.313ZM6.164,13.285,13.888,15h0L23.94,17.229,26.179,4.242l4.015.439L27.209,17.6l3.731.417V0H8.7Z" fill="#fff"/>
</svg>
